<?xml version="1.0" encoding="UTF-8" standalone="no"?><!DOCTYPE svg PUBLIC "-//W3C//DTD SVG 1.1//EN" "http://www.w3.org/Graphics/SVG/1.1/DTD/svg11.dtd"><svg width="100%" height="100%" viewBox="0 0 383 406" version="1.1" xmlns="http://www.w3.org/2000/svg" xmlns:xlink="http://www.w3.org/1999/xlink" xml:space="preserve" xmlns:serif="http://www.serif.com/" style="fill-rule:evenodd;clip-rule:evenodd;stroke-linejoin:round;stroke-miterlimit:2;"><rect id="Plan-de-travail2" serif:id="Plan de travail2" x="-81.515" y="-66.779" width="548" height="548" style="fill:none;"/><g><g id="remplissage_picto_rayonis"><path d="M103.291,81.196l117.088,0c0,0 52.168,6.558 52.168,55.828c0,53.907 -52.168,58.942 -52.168,58.942l-117.088,0l0,-114.769Z" style="fill:#1cc5d5;"/></g></g><g><g id="ombre_int-picto_rayonis"><path d="M87.061,100.904l117.088,0c0,0 52.168,6.558 52.168,55.828c0,53.907 -52.168,58.942 -52.168,58.942l-117.088,0l0,-114.769Zm26.567,26.567l0,61.635l88.807,0c4.675,-0.788 27.314,-5.968 27.314,-32.374c0,-23.016 -21.614,-28.261 -27.474,-29.26l-88.647,0Z" style="fill-opacity:0.2;"/></g></g><g><g id="int-picto_rayonis"><path d="M103.291,81.196l117.088,0c0,0 52.168,6.558 52.168,55.828c0,53.907 -52.168,58.942 -52.168,58.942l-117.088,0l0,-114.769Zm26.567,26.567l0,61.635l88.807,0c4.675,-0.788 27.314,-5.968 27.314,-32.374c0,-23.016 -21.614,-28.261 -27.474,-29.26l-88.647,0Z" style="fill:#010001;"/></g></g><g><g id="ombre_picto-rayonis" serif:id="ombre_picto rayonis"><path d="M0,17.389c0,0 27.314,0.052 198.392,0.052c95.352,7.265 133.981,81.827 133.996,130.778c0.012,39.347 -11.454,88.8 -72.207,125.795l102.904,131.181l-132.237,-0.708l-86.999,-110.001l-33.717,-0.013l0.013,110.168l-110.145,0.013l0,-387.265Zm308.248,360.946l-77.937,-103.615c49.849,-30.356 75.52,-94.208 75.509,-126.494c-0.012,-39.357 -32.182,-97.931 -108.479,-104.219c-94.15,0 -144.541,-0.015 -170.774,-0.03l0,334.106l57.007,-0.006l-0.012,-110.181l73.15,0.027l87.05,110.066l64.486,0.345Z" style="fill-opacity:0.2;"/></g></g><g><g id="picto_rayonis_iso"><path d="M19.828,0c0,0 27.314,0.052 198.392,0.052c95.352,7.265 133.981,81.827 133.996,130.778c0.012,39.347 -17.431,83.57 -72.207,125.795l102.904,131.181l-132.237,-0.708l-86.999,-110.001l-33.717,-0.013l0.013,110.168l-110.145,0.013l0,-387.265Zm308.248,360.946l-81.295,-106.604c49.849,-30.356 78.878,-91.219 78.868,-123.505c-0.012,-39.357 -32.182,-97.931 -108.479,-104.219c-94.15,0 -144.541,-0.015 -170.774,-0.03l0,334.106l57.007,-0.006l-0.012,-110.181l73.15,0.027l87.05,110.066l64.486,0.345Z" style="fill:#010001;"/></g></g></svg>