<?xml version="1.0" encoding="UTF-8" standalone="no"?>
<!DOCTYPE svg PUBLIC "-//W3C//DTD SVG 1.1//EN" "http://www.w3.org/Graphics/SVG/1.1/DTD/svg11.dtd">
<svg width="100%" height="100%" viewBox="0 0 548 495" version="1.1" xmlns="http://www.w3.org/2000/svg" xmlns:xlink="http://www.w3.org/1999/xlink" xml:space="preserve" xmlns:serif="http://www.serif.com/" style="fill-rule:evenodd;clip-rule:evenodd;stroke-miterlimit:1.5;">
    <g transform="matrix(1,0,0,1,-1451,-1120.960156)">
        <g transform="matrix(1,0,0,1,425.948204,36)">
            <g id="remplissage_picto_rayonis" transform="matrix(1,0,0,1,-426,-37)">
                <path d="M1646,1192L1747,1192C1747,1192 1792,1197.657 1792,1240.157C1792,1286.657 1747,1291 1747,1291L1646,1291L1646,1192Z" style="fill:rgb(28,197,213);"/>
            </g>
        </g>
        <g transform="matrix(1,0,0,1,425.948204,36)">
            <g id="ombre_int-picto_rayonis" transform="matrix(1,0,0,1,-440,-20)">
                <path d="M1646,1192L1747,1192C1747,1192 1792,1197.657 1792,1240.157C1792,1286.657 1747,1291 1747,1291L1646,1291L1646,1192ZM1668.917,1214.917L1668.917,1268.083L1745.522,1268.083C1749.555,1267.403 1769.083,1262.935 1769.083,1240.157C1769.083,1220.303 1750.439,1215.779 1745.384,1214.917L1668.917,1214.917Z" style="fill-opacity:0.2;"/>
            </g>
        </g>
        <g transform="matrix(1,0,0,1,425.948204,36)">
            <g id="int-picto_rayonis" transform="matrix(1,0,0,1,-426,-37)">
                <path d="M1646,1192L1747,1192C1747,1192 1792,1197.657 1792,1240.157C1792,1286.657 1747,1291 1747,1291L1646,1291L1646,1192ZM1668.917,1214.917L1668.917,1268.083L1745.522,1268.083C1749.555,1267.403 1769.083,1262.935 1769.083,1240.157C1769.083,1220.303 1750.439,1215.779 1745.384,1214.917L1668.917,1214.917Z" style="fill:rgb(1,0,1);"/>
            </g>
        </g>
        <g transform="matrix(1,0,0,1,425.948204,36)">
            <g id="ombre_picto-rayonis" serif:id="ombre_picto rayonis" transform="matrix(1,0,0,1,-443.103593,-22)">
                <path d="M1574.005,1121.96C1574.005,1121.96 1597.566,1122.005 1745.138,1122.005C1827.389,1128.272 1860.71,1192.589 1860.723,1234.814C1860.733,1268.755 1850.843,1311.413 1798.437,1343.325L1887.202,1456.482L1773.134,1455.871L1698.089,1360.984L1669.005,1360.973L1669.016,1456.004L1574.005,1456.015L1574.005,1121.96ZM1839.9,1433.312L1780.406,1357.469L1786.518,1323.752C1829.518,1297.567 1837.815,1262.67 1837.806,1234.82C1837.796,1200.871 1810.046,1150.345 1744.232,1144.921C1663.018,1144.921 1619.551,1144.908 1596.922,1144.895L1596.922,1433.095L1646.096,1433.09L1646.086,1338.048L1709.185,1338.071L1784.274,1433.014L1839.9,1433.312Z" style="fill-opacity:0.2;"/>
            </g>
        </g>
        <g transform="matrix(1,0,0,1,425.948204,36)">
            <g id="picto_rayonis_iso" transform="matrix(1,0,0,1,-426,-37)">
                <path d="M1574.005,1121.96C1574.005,1121.96 1597.566,1122.005 1745.138,1122.005C1827.389,1128.272 1860.71,1192.589 1860.723,1234.814C1860.733,1268.755 1850.843,1311.413 1798.437,1343.325L1887.202,1456.482L1773.134,1455.871L1698.089,1360.984L1669.005,1360.973L1669.016,1456.004L1574.005,1456.015L1574.005,1121.96ZM1839.9,1433.312L1780.406,1357.469L1786.518,1323.752C1829.518,1297.567 1837.815,1262.67 1837.806,1234.82C1837.796,1200.871 1810.046,1150.345 1744.232,1144.921C1663.018,1144.921 1619.551,1144.908 1596.922,1144.895L1596.922,1433.095L1646.096,1433.09L1646.086,1338.048L1709.185,1338.071L1784.274,1433.014L1839.9,1433.312Z" style="fill:rgb(1,0,1);"/>
            </g>
        </g>
        <g transform="matrix(1,0,0,1,-13,16)">
            <path id="ombre_a" d="M1537,1588L1571,1510L1592,1510L1626,1588L1604,1588L1598,1573L1565,1573L1559,1588L1537,1588ZM1568.985,1556.333L1594.015,1556.333L1581.5,1527.622L1568.985,1556.333Z" style="fill-opacity:0.2;"/>
        </g>
        <g transform="matrix(1,0,0,1,-13,16)">
            <path id="ombre_y" d="M1619,1510L1641,1510L1659,1541L1677,1510L1699,1510L1669,1560L1669,1588L1648,1588L1648,1559L1619,1510Z" style="fill-opacity:0.2;"/>
        </g>
        <g transform="matrix(1,0,0,1,-13,16)">
            <path id="ombre_n" d="M1796,1510L1814,1510L1848,1552L1848,1510L1869,1510L1869,1588L1851,1588L1816,1546L1816,1588L1796,1588L1796,1510Z" style="fill-opacity:0.2;"/>
        </g>
        <g transform="matrix(1,0,0,1,-13,16)">
            <rect id="ombre_i" x="1887" y="1510" width="21" height="78" style="fill-opacity:0.2;"/>
        </g>
        <g transform="matrix(1,0,0,1,-13,16)">
            <path id="ombre_r" d="M1464,1588L1464,1510L1503,1510C1503,1510 1531.997,1511.167 1532,1537C1532.002,1557.136 1517,1563 1517,1563L1534,1588L1511,1588L1497,1565L1485,1565L1485,1588L1464,1588ZM1509.06,1544.745L1509.416,1543.596L1508.4,1544.041C1508.4,1544.041 1511.167,1541.265 1511.167,1537.003C1511.166,1533.552 1508.41,1532.432 1506.551,1531.805C1504.55,1531.131 1502.842,1530.894 1502.319,1530.833L1484.833,1530.833L1484.833,1544.167L1508.708,1544.167L1509.06,1544.745Z" style="fill-opacity:0.2;"/>
        </g>
        <g transform="matrix(1,0,0,1,-13,16)">
            <g id="ombre_o" transform="matrix(0.922842,0,0,0.943053,133.859977,85.819519)">
                <path d="M1741.361,1507C1766.397,1507 1786.723,1526.671 1786.723,1550.9C1786.723,1575.129 1766.397,1594.801 1741.361,1594.801C1716.326,1594.801 1696,1575.129 1696,1550.9C1696,1526.671 1716.326,1507 1741.361,1507ZM1741.361,1529.091C1728.854,1529.091 1718.575,1538.796 1718.575,1550.9C1718.575,1563.005 1728.854,1572.709 1741.361,1572.709C1753.869,1572.709 1764.148,1563.005 1764.148,1550.9C1764.148,1538.796 1753.869,1529.091 1741.361,1529.091Z" style="fill-opacity:0.2;"/>
            </g>
        </g>
        <g transform="matrix(1,0,0,1,-13,16)">
            <g id="ombre_s" transform="matrix(1,0,0,1,0,2)">
                <path d="M1980,1522C1947.667,1510.333 1932.791,1517.153 1932,1531C1930.42,1558.652 1981.339,1534.519 1976,1566C1971.872,1590.342 1923,1573 1923,1573" style="fill:none;stroke:black;stroke-opacity:0.2;stroke-width:20.83px;"/>
            </g>
        </g>
        <path id="a" d="M1537,1588L1571,1510L1592,1510L1626,1588L1604,1588L1598,1573L1565,1573L1559,1588L1537,1588ZM1568.985,1556.333L1594.015,1556.333L1581.5,1527.622L1568.985,1556.333Z"/>
        <path id="y" d="M1619,1510L1641,1510L1659,1541L1677,1510L1699,1510L1669,1560L1669,1588L1648,1588L1648,1559L1619,1510Z"/>
        <path id="n" d="M1796,1510L1814,1510L1848,1552L1848,1510L1869,1510L1869,1588L1851,1588L1816,1546L1816,1588L1796,1588L1796,1510Z"/>
        <rect id="i" x="1887" y="1510" width="21" height="78"/>
        <path id="r" d="M1464,1588L1464,1510L1503,1510C1503,1510 1531.997,1511.167 1532,1537C1532.002,1557.136 1517,1563 1517,1563L1534,1588L1511,1588L1497,1565L1485,1565L1485,1588L1464,1588ZM1509.06,1544.745L1509.416,1543.596L1508.4,1544.041C1508.4,1544.041 1511.167,1541.265 1511.167,1537.003C1511.166,1533.552 1508.41,1532.432 1506.551,1531.805C1504.55,1531.131 1502.842,1530.894 1502.319,1530.833L1484.833,1530.833L1484.833,1544.167L1508.708,1544.167L1509.06,1544.745Z"/>
        <g id="o" transform="matrix(0.922842,0,0,0.943053,133.859977,85.819519)">
            <path d="M1741.361,1507C1766.397,1507 1786.723,1526.671 1786.723,1550.9C1786.723,1575.129 1766.397,1594.801 1741.361,1594.801C1716.326,1594.801 1696,1575.129 1696,1550.9C1696,1526.671 1716.326,1507 1741.361,1507ZM1741.361,1529.091C1728.854,1529.091 1718.575,1538.796 1718.575,1550.9C1718.575,1563.005 1728.854,1572.709 1741.361,1572.709C1753.869,1572.709 1764.148,1563.005 1764.148,1550.9C1764.148,1538.796 1753.869,1529.091 1741.361,1529.091Z"/>
        </g>
        <g id="s" transform="matrix(1,0,0,1,0,2)">
            <path d="M1980,1522C1947.667,1510.333 1932.791,1517.153 1932,1531C1930.42,1558.652 1981.339,1534.519 1976,1566C1971.872,1590.342 1923,1573 1923,1573" style="fill:none;stroke:black;stroke-width:20.83px;"/>
        </g>
        <path id="int_r" d="M1485,1527L1503,1527C1503,1527 1511,1530.147 1511,1536.813C1511,1547.48 1503,1549 1503,1549L1485,1549L1485,1527ZM1490.815,1533.981C1490.426,1534.741 1490.167,1535.664 1490.167,1536.813C1490.167,1538.572 1490.656,1540.153 1491.335,1541.499L1494.833,1538L1490.815,1533.981Z" style="fill:rgb(208,208,208);"/>
    </g>
</svg>
